<svg id="Layer_1" xmlns="http://www.w3.org/2000/svg" version="1.1" viewBox="0 0 658.7 102.2"><defs><style>
      .st0 {
        fill: #e72625;
      }
    </style></defs><path class="st0" d="M1.3,41.8c0-9.2,4.8-22.2,25.8-22.2s25.8,13.1,25.8,22.2v36.8c0,9.2-4.8,22.2-25.8,22.2S1.3,87.7,1.3,78.6v-36.8ZM22.3,80c0,2.7,0,6.4,4.8,6.4s4.8-3.7,4.8-6.4v-39.7c0-2.7,0-6.4-4.8-6.4s-4.8,3.7-4.8,6.4v39.7Z"></path><path class="st0" d="M59.5,74.6h18.8v4.8c0,3.1.9,7,5.4,7s4.6-2.2,4.6-5.7c0-6.2-7.2-10.1-14-15.4-6.9-5.2-14.1-11.7-14.1-23.2s9.7-22.5,23.5-22.5,23.3,6.1,23.3,20.5v4.1h-18.8v-4.1c0-2-.1-6.1-4.5-6.1s-4.6,1.7-4.6,5.3c0,6.2,8.2,9.9,14.4,15.4,7.2,5.5,14.4,11.2,14.4,23.2s-1.3,23-24.2,23-24.2-8.2-24.2-21v-5.1Z"></path><path class="st0" d="M114.5,1.6h21v97.6h-21V1.6Z"></path><path class="st0" d="M146,41.8c0-9.2,4.8-22.2,25.8-22.2s25.8,13.1,25.8,22.2v36.8c0,9.2-4.8,22.2-25.8,22.2s-25.8-13.1-25.8-22.2v-36.8ZM167,80c0,2.7,0,6.4,4.8,6.4s4.8-3.7,4.8-6.4v-39.7c0-2.7,0-6.4-4.8-6.4s-4.8,3.7-4.8,6.4v39.7Z"></path><path d="M241.2,21.1h20.3v9.7h.2c3.9-7.1,7.8-11.2,16.4-11.2s12.8,3.1,14.5,11.2c4-7.1,7.1-11.2,16.7-11.2s15.4,7.1,15.4,16.7v62.9h-21v-52.4c0-2.8,0-8.4-5.1-8.4s-5.1,6.6-5.1,8.4v52.4h-21v-52.4c0-2.8,0-8.4-5.1-8.4s-5.1,6.6-5.1,8.4v52.4h-21V21.1Z"></path><path d="M386.9,99.2h-20.3v-8.7h-.2c-3.8,6.6-7.9,10.3-16,10.3s-15-7.3-15-16.7V21.1h21v53.4c0,2.8,0,7.5,4.8,7.5s4.8-5.6,4.8-7.5V21.1h21v78.1Z"></path><path d="M394.6,74.6h18.8v4.8c0,3.1.9,7,5.4,7s4.7-2.2,4.7-5.7c0-6.2-7.2-10.1-14.1-15.4-6.9-5.2-14.1-11.7-14.1-23.2s9.7-22.5,23.5-22.5,23.3,6.1,23.3,20.5v4.1h-18.8v-4.1c0-2-.1-6.1-4.5-6.1s-4.6,1.7-4.6,5.3c0,6.2,8.2,9.9,14.4,15.4,7.2,5.5,14.4,11.2,14.4,23.2s-1.3,23-24.2,23-24.2-8.2-24.2-21v-5.1Z"></path><path d="M450.7,41.8c0-9.2,4.8-22.2,25.8-22.2s25.8,13.1,25.8,22.2v21.5h-30.6v16.7c0,2.7,0,6.4,4.8,6.4s4.8-3.7,4.8-6.4v-9.8h21v8.3c0,9.2-4.8,22.2-25.8,22.2s-25.8-13.1-25.8-22.2v-36.8ZM471.7,48.9h9.5v-8.6c0-2.7,0-6.4-4.8-6.4s-4.8,3.7-4.8,6.4v8.6Z"></path><path d="M563.3,99.2h-20.3v-8.7h-.2c-3.8,6.6-7.9,10.3-16,10.3s-15-7.3-15-16.7V21.1h21v53.4c0,2.8,0,7.5,4.8,7.5s4.8-5.6,4.8-7.5V21.1h21v78.1Z"></path><path d="M573.8,21.1h20.3v9.7h.2c3.9-7.1,7.8-11.2,16.4-11.2s12.8,3.1,14.5,11.2c4-7.1,7.1-11.2,16.7-11.2s15.4,7.1,15.4,16.7v62.9h-21v-52.4c0-2.8,0-8.4-5.1-8.4s-5.1,6.6-5.1,8.4v52.4h-21v-52.4c0-2.8,0-8.4-5.1-8.4s-5.1,6.6-5.1,8.4v52.4h-21V21.1Z"></path></svg>