<svg id="Layer_3" xmlns="http://www.w3.org/2000/svg" viewBox="0 0 399.624 115.337"><defs><style>.cls-1{fill:#050538}</style></defs><path id="SvgjsPath19639" class="cls-1" d="M306.167 327.1a8.5 8.5 0 1 1 12.472 11.552l-1.656-1.533a6.243 6.243 0 0 0-9.16-8.486z" transform="translate(-221.138 -239.981)"></path><path id="SvgjsPath19637" class="cls-1" d="M302.193 330.507a8.5 8.5 0 0 1 11.28 12.719l-1.497-1.689a6.243 6.243 0 0 0-8.286-9.342z" transform="translate(-221.138 -239.981)"></path><path id="SvgjsPath19635" class="cls-1" d="M297.925 333.186a8.5 8.5 0 0 1 9.634 14.006l-1.279-1.859a6.243 6.243 0 0 0-7.076-10.288z" transform="translate(-221.138 -239.981)"></path><path id="SvgjsPath19633" class="cls-1" d="M293.363 335.31a8.5 8.5 0 0 1 7.83 15.09l-1.04-2.003a6.243 6.243 0 1 0-5.75-11.084z" transform="translate(-221.138 -239.981)"></path><path id="SvgjsPath19631" class="cls-1" d="M288.579 336.847a8.5 8.5 0 0 1 5.89 15.947l-.782-2.117a6.243 6.243 0 0 0-4.326-11.713z" transform="translate(-221.138 -239.981)"></path><path id="SvgjsPath19629" class="cls-1" d="M283.641 337.773a8.5 8.5 0 0 1 3.858 16.557l-.512-2.198a6.243 6.243 0 0 0-2.834-12.16z" transform="translate(-221.138 -239.981)"></path><path id="SvgjsPath19627" class="cls-1" d="M278.624 338.08a8.5 8.5 0 1 1 1.77 16.907l-.235-2.244a6.243 6.243 0 0 0-1.3-12.42z" transform="translate(-221.138 -239.981)"></path><path id="SvgjsPath19625" class="cls-1" d="M273.613 337.758a8.5 8.5 0 1 1-.356 16.997l.047-2.257a6.243 6.243 0 1 0 .262-12.484z" transform="translate(-221.138 -239.981)"></path><path id="SvgjsPath19623" class="cls-1" d="M268.673 336.815a8.5 8.5 0 1 1-2.46 16.821l.327-2.233a6.243 6.243 0 1 0 1.807-12.355z" transform="translate(-221.138 -239.981)"></path><path id="SvgjsPath19621" class="cls-1" d="M263.89 335.267a8.5 8.5 0 1 1-4.53 16.385l.6-2.175a6.243 6.243 0 1 0 3.33-12.035z" transform="translate(-221.138 -239.981)"></path><path id="SvgjsPath19619" class="cls-1" d="M259.339 333.136a8.5 8.5 0 1 1-6.534 15.695l.868-2.084a6.243 6.243 0 1 0 4.798-11.527z" transform="translate(-221.138 -239.981)"></path><path id="SvgjsPath19617" class="cls-1" d="M255.08 330.457a8.5 8.5 0 1 1-8.424 14.767l1.118-1.96a6.243 6.243 0 1 0 6.188-10.846z" transform="translate(-221.138 -239.981)"></path><path id="SvgjsPath19615" class="cls-1" d="M251.175 327.274a8.5 8.5 0 1 1-10.174 13.619l1.35-1.808a6.243 6.243 0 0 0 7.473-10.003z" transform="translate(-221.138 -239.981)"></path><path id="SvgjsPath19613" class="cls-1" d="M247.687 323.634a8.5 8.5 0 1 1-11.766 12.27l1.562-1.628a6.243 6.243 0 0 0 8.642-9.013z" transform="translate(-221.138 -239.981)"></path><path id="SvgjsPath19611" class="cls-1" d="M244.67 319.594a8.5 8.5 0 0 1-13.179 10.74l1.75-1.426a6.243 6.243 0 1 0 9.68-7.888z" transform="translate(-221.138 -239.981)"></path><path id="SvgjsPath19609" class="cls-1" d="M242.174 315.218a8.5 8.5 0 1 1-14.398 9.038l1.911-1.2a6.243 6.243 0 0 0 10.576-6.638z" transform="translate(-221.138 -239.981)"></path><path id="SvgjsPath19607" class="cls-1" d="M240.245 310.573a8.5 8.5 0 0 1-15.407 7.186l2.045-.954a6.243 6.243 0 0 0 11.317-5.279z" transform="translate(-221.138 -239.981)"></path><path id="SvgjsPath19605" class="cls-1" d="M238.913 305.728a8.5 8.5 0 1 1-16.181 5.211l2.148-.692a6.243 6.243 0 1 0 11.885-3.827z" transform="translate(-221.138 -239.981)"></path><path id="SvgjsPath19603" class="cls-1" d="M238.199 300.757a8.5 8.5 0 0 1-16.706 3.15l2.218-.418a6.243 6.243 0 0 0 12.27-2.313z" transform="translate(-221.138 -239.981)"></path><path id="SvgjsPath19601" class="cls-1" d="M238.106 295.73a8.5 8.5 0 0 1-16.968 1.052l2.253-.14a6.243 6.243 0 1 0 12.462-.773z" transform="translate(-221.138 -239.981)"></path><path id="SvgjsPath19599" class="cls-1" d="M238.629 290.721a8.5 8.5 0 1 1-16.968-1.044l2.252.139a6.243 6.243 0 0 0 12.463.767z" transform="translate(-221.138 -239.981)"></path><path id="SvgjsPath19597" class="cls-1" d="M239.768 285.823a8.5 8.5 0 0 1-16.708-3.14l2.218.417a6.243 6.243 0 1 0 12.272 2.306z" transform="translate(-221.138 -239.981)"></path><path id="SvgjsPath19595" class="cls-1" d="M241.509 281.11a8.5 8.5 0 0 1-16.186-5.196l2.148.69a6.243 6.243 0 0 0 11.89 3.817z" transform="translate(-221.138 -239.981)"></path><path id="SvgjsPath19593" class="cls-1" d="M243.823 276.65a8.5 8.5 0 1 1-15.414-7.17l2.046.952a6.243 6.243 0 0 0 11.322 5.266z" transform="translate(-221.138 -239.981)"></path><path id="SvgjsPath19591" class="cls-1" d="M246.674 272.503a8.5 8.5 0 0 1-14.41-9.02l1.912 1.197a6.243 6.243 0 0 0 10.585 6.625z" transform="translate(-221.138 -239.981)"></path><path id="SvgjsPath19589" class="cls-1" d="M250.015 268.732a8.5 8.5 0 1 1-13.193-10.722l1.752 1.423a6.243 6.243 0 0 0 9.69 7.876z" transform="translate(-221.138 -239.981)"></path><path id="SvgjsPath19587" class="cls-1" d="M253.794 265.395a8.5 8.5 0 1 1-11.78-12.257l1.563 1.627a6.243 6.243 0 0 0 8.653 9.003z" transform="translate(-221.138 -239.981)"></path><path id="SvgjsPath19585" class="cls-1" d="M257.952 262.547a8.5 8.5 0 0 1-10.189-13.609l1.353 1.807a6.243 6.243 0 0 0 7.483 9.996z" transform="translate(-221.138 -239.981)"></path><path id="SvgjsPath19583" class="cls-1" d="M262.426 260.238a8.5 8.5 0 0 1-8.434-14.76l1.12 1.959a6.243 6.243 0 1 0 6.195 10.841z" transform="translate(-221.138 -239.981)"></path><path id="SvgjsPath19581" class="cls-1" d="M267.147 258.505a8.5 8.5 0 1 1-6.539-15.693l.868 2.083a6.243 6.243 0 0 0 4.803 11.527z" transform="translate(-221.138 -239.981)"></path><path id="SvgjsPath19579" class="cls-1" d="M272.041 257.377a8.5 8.5 0 0 1-4.53-16.385l.601 2.175a6.243 6.243 0 1 0 3.328 12.035z" transform="translate(-221.138 -239.981)"></path><path id="SvgjsPath19577" class="cls-1" d="M277.039 256.87a8.5 8.5 0 0 1-2.452-16.823l.325 2.233a6.243 6.243 0 1 0 1.801 12.356z" transform="translate(-221.138 -239.981)"></path><path id="SvgjsPath19575" class="cls-1" d="M282.074 256.978a8.5 8.5 0 0 1-.363-16.997l.048 2.257a6.243 6.243 0 1 0 .267 12.483z" transform="translate(-221.138 -239.981)"></path><path id="SvgjsPath19573" class="cls-1" d="M287.064 257.698a8.5 8.5 0 0 1 1.72-16.913l-.228 2.245a6.243 6.243 0 1 0-1.264 12.423z" transform="translate(-221.138 -239.981)"></path><path id="SvgjsPath19571" class="cls-1" d="M291.912 259.033a8.5 8.5 0 0 1 3.804-16.57l-.505 2.2a6.243 6.243 0 0 0-2.794 12.17z" transform="translate(-221.138 -239.981)"></path><path id="SvgjsPath19569" class="cls-1" d="M296.553 260.96a8.5 8.5 0 0 1 5.837-15.967l-.775 2.12a6.243 6.243 0 1 0-4.288 11.727z" transform="translate(-221.138 -239.981)"></path><path id="SvgjsPath19567" class="cls-1" d="M300.92 263.45a8.5 8.5 0 1 1 7.775-15.118l-1.032 2.007a6.243 6.243 0 0 0-5.712 11.104z" transform="translate(-221.138 -239.981)"></path><path id="SvgjsPath19565" class="cls-1" d="M304.94 266.464a8.5 8.5 0 1 1 9.597-14.033l-1.274 1.863a6.243 6.243 0 1 0-7.05 10.307z" transform="translate(-221.138 -239.981)"></path><path id="SvgjsPath19563" class="cls-1" d="M308.564 269.954a8.5 8.5 0 1 1 11.258-12.737l-1.494 1.69a6.243 6.243 0 1 0-8.27 9.357z" transform="translate(-221.138 -239.981)"></path><path id="SvgjsPath19561" class="cls-1" d="M311.94 273.95a8.5 8.5 0 0 1 12.473-11.55l-1.655 1.533a6.243 6.243 0 0 0-9.162 8.484z" transform="translate(-221.138 -239.981)"></path><path id="SvgjsRect19759" class="cls-1" d="M212.782 105.764h14.557v3.498h-14.557z"></path><path id="SvgjsRect19757" class="cls-1" d="M212.782 99.499h14.557v3.498h-14.557z"></path><path id="SvgjsRect19755" class="cls-1" d="M212.782 93.235h14.557v3.498h-14.557z"></path><path id="SvgjsRect19753" class="cls-1" d="M212.782 86.971h14.557v3.498h-14.557z"></path><path id="SvgjsRect19751" class="cls-1" d="M212.782 80.707h14.557v3.498h-14.557z"></path><path id="SvgjsRect19749" class="cls-1" d="M212.782 74.443h14.557v3.498h-14.557z"></path><path id="SvgjsRect19747" class="cls-1" d="M212.782 68.179h14.557v3.498h-14.557z"></path><path id="SvgjsRect19745" class="cls-1" d="M212.782 61.915h14.557v3.498h-14.557z"></path><path id="SvgjsRect19743" class="cls-1" d="M212.782 55.651h14.557v3.498h-14.557z"></path><path id="SvgjsRect19741" class="cls-1" d="M212.782 49.386h14.557v3.498h-14.557z"></path><path id="SvgjsRect19739" class="cls-1" d="M212.782 43.122h14.557v3.498h-14.557z"></path><path id="SvgjsRect19737" class="cls-1" d="M212.782 36.858h14.557v3.498h-14.557z"></path><path id="SvgjsRect19735" class="cls-1" d="M212.782 30.594h14.557v3.498h-14.557z"></path><path id="SvgjsRect19733" class="cls-1" d="M212.782 24.33h14.557v3.498h-14.557z"></path><path id="SvgjsRect19731" class="cls-1" d="M212.782 18.066h14.557v3.498h-14.557z"></path><path id="SvgjsRect19729" class="cls-1" d="M212.782 11.802h14.557V15.3h-14.557z"></path><path id="SvgjsRect19727" class="cls-1" d="M212.782 5.537h14.557v3.498h-14.557z"></path><path id="SvgjsRect19725" class="cls-1" d="M282.531.007h3.498v14.557h-3.498z"></path><path id="SvgjsRect19723" class="cls-1" d="M276.109.007h3.498v14.557h-3.498z"></path><path id="SvgjsRect19721" class="cls-1" d="M269.687.007h3.498v14.557h-3.498z"></path><path id="SvgjsRect19719" class="cls-1" d="M263.265.007h3.498v14.557h-3.498z"></path><path id="SvgjsRect19717" class="cls-1" d="M256.843.007h3.498v14.557h-3.498z"></path><path id="SvgjsRect19715" class="cls-1" d="M250.421.007h3.498v14.557h-3.498z"></path><path id="SvgjsRect19713" class="cls-1" d="M244 .007h3.498v14.557H244z"></path><path id="SvgjsRect19711" class="cls-1" d="M237.578.007h3.498v14.557h-3.498z"></path><path id="SvgjsRect19709" class="cls-1" d="M231.156.007h3.498v14.557h-3.498z"></path><path id="SvgjsRect19707" class="cls-1" d="M224.734.007h3.498v14.557h-3.498z"></path><path id="SvgjsRect19705" class="cls-1" d="M218.312.007h3.498v14.557h-3.498z"></path><path id="SvgjsRect19703" class="cls-1" d="M282.531 100.234h3.498v14.557h-3.498z"></path><path id="SvgjsRect19701" class="cls-1" d="M276.109 100.234h3.498v14.557h-3.498z"></path><path id="SvgjsRect19699" class="cls-1" d="M269.687 100.234h3.498v14.557h-3.498z"></path><path id="SvgjsRect19697" class="cls-1" d="M263.265 100.234h3.498v14.557h-3.498z"></path><path id="SvgjsRect19695" class="cls-1" d="M256.843 100.234h3.498v14.557h-3.498z"></path><path id="SvgjsRect19693" class="cls-1" d="M250.421 100.234h3.498v14.557h-3.498z"></path><path id="SvgjsRect19691" class="cls-1" d="M244 100.234h3.498v14.557H244z"></path><path id="SvgjsRect19689" class="cls-1" d="M237.578 100.234h3.498v14.557h-3.498z"></path><path id="SvgjsRect19687" class="cls-1" d="M231.156 100.234h3.498v14.557h-3.498z"></path><path id="SvgjsRect19685" class="cls-1" d="M224.734 100.234h3.498v14.557h-3.498z"></path><path id="SvgjsRect19683" class="cls-1" d="M218.312 100.234h3.498v14.557h-3.498z"></path><path id="SvgjsRect19681" class="cls-1" d="M276.375 50.582h3.498v14.557h-3.498z"></path><path id="SvgjsRect19679" class="cls-1" d="M269.924 50.582h3.498v14.557h-3.498z"></path><path id="SvgjsRect19677" class="cls-1" d="M263.472 50.582h3.498v14.557h-3.498z"></path><path id="SvgjsRect19675" class="cls-1" d="M257.021 50.582h3.498v14.557h-3.498z"></path><path id="SvgjsRect19673" class="cls-1" d="M250.569 50.582h3.498v14.557h-3.498z"></path><path id="SvgjsRect19671" class="cls-1" d="M244.118 50.582h3.498v14.557h-3.498z"></path><path id="SvgjsRect19669" class="cls-1" d="M237.667 50.582h3.498v14.557h-3.498z"></path><path id="SvgjsRect19667" class="cls-1" d="M231.215 50.582h3.498v14.557h-3.498z"></path><path id="SvgjsRect19665" class="cls-1" d="M224.764 50.582h3.498v14.557h-3.498z"></path><path id="SvgjsRect19663" class="cls-1" d="M218.312 50.582h3.498v14.557h-3.498z"></path><path class="cls-1" d="M527.002 313.328a5.807 5.807 0 1 0-5.807 5.807 5.814 5.814 0 0 0 5.807-5.807zm3.119 8.856a6.803 6.803 0 1 0 6.804 6.803 6.81 6.81 0 0 0-6.804-6.803zm15.77 11.271a7.799 7.799 0 1 0 7.8 7.799 7.808 7.808 0 0 0-7.8-7.8zm21.363 3.928a8.795 8.795 0 1 0 8.794 8.795 8.805 8.805 0 0 0-8.794-8.795zm21.362-3.928a7.799 7.799 0 1 0 7.798 7.799 7.808 7.808 0 0 0-7.798-7.8z" transform="translate(-221.138 -239.981)"></path><circle class="cls-1" cx="383.248" cy="89.005" r="6.803"></circle><path class="cls-1" d="M613.313 307.52a5.807 5.807 0 1 0 5.807 5.807 5.814 5.814 0 0 0-5.807-5.807z" transform="translate(-221.138 -239.981)"></path><circle class="cls-1" cx="394.812" cy="57.5" r="4.811"></circle><path class="cls-1" d="M607.506 281.635a5.807 5.807 0 1 0 5.807-5.807 5.814 5.814 0 0 0-5.807 5.807z" transform="translate(-221.138 -239.981)"></path><circle class="cls-1" cx="383.248" cy="25.995" r="6.803"></circle><circle class="cls-1" cx="367.478" cy="13.728" r="7.799"></circle><path class="cls-1" d="M567.254 239.99a8.795 8.795 0 1 0 8.794 8.795 8.805 8.805 0 0 0-8.794-8.794zm-21.363 5.92a7.799 7.799 0 1 0 7.8 7.799 7.808 7.808 0 0 0-7.8-7.799zm-15.77 13.263a6.803 6.803 0 1 0 6.804 6.803 6.81 6.81 0 0 0-6.804-6.803zm-8.926 28.269a5.807 5.807 0 1 0-5.807-5.807 5.814 5.814 0 0 0 5.807 5.807z" transform="translate(-221.138 -239.981)"></path><circle class="cls-1" cx="297.42" cy="57.5" r="4.811"></circle><path class="cls-1" d="M139.595 81.61l-6.679-4.393-6.765 4.232-8.91-6.148L122.279 68l4.11 2.836 6.647-4.159 6.539 4.302 6.492-4.306 6.599 3.997 5.907-4.471 6.505 2.663 4.116-5.466 6.674.393 1.689-6.201 5.932-2.485-1.241-6.461 4.619-4.839-3.636-5.684 2.587-6.12-5.339-3.699-.25-6.478-6.417-1.067-2.981-5.829-6.577 1.742L159 11.769l-6.611 3.488-6.247-4.384-6.568 4.227-6.621-4.302-6.632 4.309-9.049-5.878 4.832-7.44 4.217 2.74L132.953.22l6.644 4.316 6.76-4.349 6.689 4.693 7.392-3.9 6.282 5.858 8.753-2.319 4.203 8.218 9.139 1.52.358 9.274 7.623 5.282-3.576 8.459 4.872 7.619-6.269 6.569 1.737 9.041-8.582 3.596-2.444 8.971-9.114-.537-5.372 7.132-8.155-3.338-6.673 5.052-6.937-4.202-6.688 4.435z" id="SvgjsPolyline24329"></path><path class="cls-1" d="M121.244 115.337l-7.421-4.861 2.717-4.147-4.309-6.578 4.309-6.578-4.309-6.577 4.309-6.578-4.309-6.577 4.309-6.578-4.309-6.577 4.309-6.578-4.309-6.578 4.309-6.578-4.309-6.577 4.309-6.578-4.309-6.577 4.309-6.578-2.717-4.147 7.421-4.861 5.901 9.008-4.309 6.578 4.309 6.577-4.309 6.578 4.309 6.577-4.309 6.578 4.309 6.578-4.309 6.578 4.309 6.577-4.309 6.578 4.309 6.577-4.309 6.578 4.309 6.577-4.309 6.578 4.309 6.578-5.901 9.008z" id="SvgjsPolyline24327"></path><path class="cls-1" d="M185.046 114.489l-.39-5.418-7.569-3.105-.588-8.159-7.568-3.106-.588-8.159-7.568-3.105-.785-10.9 8.848-.638.391 5.418 7.568 3.105.587 8.159 7.569 3.105.587 8.159 7.568 3.106.786 10.9-8.848.638z" id="SvgjsPolyline24325"></path></svg>